<mxfile host="Electron" agent="Mozilla/5.0 (Windows NT 10.0; Win64; x64) AppleWebKit/537.36 (KHTML, like Gecko) draw.io/26.0.4 Chrome/128.0.6613.186 Electron/32.2.5 Safari/537.36" version="26.0.4">
  <diagram name="Page-1" id="_ul84NfK9-CBWMyaACsg">
    <mxGraphModel dx="1098" dy="828" grid="1" gridSize="10" guides="1" tooltips="1" connect="1" arrows="1" fold="1" page="1" pageScale="1" pageWidth="827" pageHeight="1169" math="0" shadow="0">
      <root>
        <mxCell id="0" />
        <mxCell id="1" parent="0" />
        <mxCell id="0eupzgxlTmyvxrooECk--16" value="" style="rounded=0;whiteSpace=wrap;html=1;fillColor=#fff2cc;strokeColor=none;opacity=60;" vertex="1" parent="1">
          <mxGeometry x="210" y="330" width="500" height="100" as="geometry" />
        </mxCell>
        <mxCell id="0eupzgxlTmyvxrooECk--15" value="" style="rounded=0;whiteSpace=wrap;html=1;fillColor=#d5e8d4;strokeColor=none;opacity=60;" vertex="1" parent="1">
          <mxGeometry x="210" y="210" width="500" height="120" as="geometry" />
        </mxCell>
        <mxCell id="0eupzgxlTmyvxrooECk--14" value="" style="rounded=0;whiteSpace=wrap;html=1;fillColor=#dae8fc;strokeColor=none;opacity=60;" vertex="1" parent="1">
          <mxGeometry x="210" y="10" width="500" height="200" as="geometry" />
        </mxCell>
        <mxCell id="0eupzgxlTmyvxrooECk--3" value="" style="edgeStyle=orthogonalEdgeStyle;rounded=0;orthogonalLoop=1;jettySize=auto;html=1;strokeColor=#1A1A1A;" edge="1" parent="1" source="0eupzgxlTmyvxrooECk--1" target="0eupzgxlTmyvxrooECk--2">
          <mxGeometry relative="1" as="geometry" />
        </mxCell>
        <mxCell id="0eupzgxlTmyvxrooECk--1" value="main" style="rounded=0;whiteSpace=wrap;html=1;fillColor=#f5f5f5;fontColor=#333333;strokeColor=#666666;" vertex="1" parent="1">
          <mxGeometry x="440" y="30" width="120" height="60" as="geometry" />
        </mxCell>
        <mxCell id="0eupzgxlTmyvxrooECk--2" value="application" style="rounded=0;whiteSpace=wrap;html=1;fillColor=#f5f5f5;fontColor=#333333;strokeColor=#666666;" vertex="1" parent="1">
          <mxGeometry x="440" y="130" width="120" height="60" as="geometry" />
        </mxCell>
        <mxCell id="0eupzgxlTmyvxrooECk--8" style="edgeStyle=orthogonalEdgeStyle;rounded=0;orthogonalLoop=1;jettySize=auto;html=1;exitX=0.5;exitY=1;exitDx=0;exitDy=0;entryX=0.5;entryY=0;entryDx=0;entryDy=0;strokeColor=#1A1A1A;" edge="1" parent="1" source="0eupzgxlTmyvxrooECk--4" target="0eupzgxlTmyvxrooECk--5">
          <mxGeometry relative="1" as="geometry" />
        </mxCell>
        <mxCell id="0eupzgxlTmyvxrooECk--4" value="TDC" style="rounded=0;whiteSpace=wrap;html=1;fillColor=#f5f5f5;fontColor=#333333;strokeColor=#666666;" vertex="1" parent="1">
          <mxGeometry x="330" y="250" width="80" height="60" as="geometry" />
        </mxCell>
        <mxCell id="0eupzgxlTmyvxrooECk--5" value="SPI" style="rounded=0;whiteSpace=wrap;html=1;fillColor=#f5f5f5;fontColor=#333333;strokeColor=#666666;" vertex="1" parent="1">
          <mxGeometry x="340" y="350" width="60" height="60" as="geometry" />
        </mxCell>
        <mxCell id="0eupzgxlTmyvxrooECk--6" value="TIM" style="rounded=0;whiteSpace=wrap;html=1;fillColor=#f5f5f5;fontColor=#333333;strokeColor=#666666;" vertex="1" parent="1">
          <mxGeometry x="420" y="350" width="60" height="60" as="geometry" />
        </mxCell>
        <mxCell id="0eupzgxlTmyvxrooECk--10" value="" style="endArrow=none;dashed=1;html=1;dashPattern=1 3;strokeWidth=2;rounded=0;fillColor=#f5f5f5;strokeColor=#666666;entryX=1;entryY=1;entryDx=0;entryDy=0;" edge="1" parent="1" target="0eupzgxlTmyvxrooECk--14">
          <mxGeometry width="50" height="50" relative="1" as="geometry">
            <mxPoint x="214" y="210" as="sourcePoint" />
            <mxPoint x="614" y="210" as="targetPoint" />
          </mxGeometry>
        </mxCell>
        <mxCell id="0eupzgxlTmyvxrooECk--11" value="" style="endArrow=none;dashed=1;html=1;dashPattern=1 3;strokeWidth=2;rounded=0;fillColor=#f5f5f5;strokeColor=#666666;entryX=1;entryY=0;entryDx=0;entryDy=0;" edge="1" parent="1" target="0eupzgxlTmyvxrooECk--14">
          <mxGeometry width="50" height="50" relative="1" as="geometry">
            <mxPoint x="214" y="10" as="sourcePoint" />
            <mxPoint x="614" y="10" as="targetPoint" />
          </mxGeometry>
        </mxCell>
        <mxCell id="0eupzgxlTmyvxrooECk--12" value="" style="endArrow=none;dashed=1;html=1;dashPattern=1 3;strokeWidth=2;rounded=0;fillColor=#f5f5f5;strokeColor=#666666;entryX=1;entryY=1;entryDx=0;entryDy=0;" edge="1" parent="1" target="0eupzgxlTmyvxrooECk--15">
          <mxGeometry width="50" height="50" relative="1" as="geometry">
            <mxPoint x="214" y="330" as="sourcePoint" />
            <mxPoint x="614" y="330" as="targetPoint" />
          </mxGeometry>
        </mxCell>
        <mxCell id="0eupzgxlTmyvxrooECk--13" value="" style="endArrow=none;dashed=1;html=1;dashPattern=1 3;strokeWidth=2;rounded=0;fillColor=#f5f5f5;strokeColor=#666666;entryX=1;entryY=1;entryDx=0;entryDy=0;" edge="1" parent="1" target="0eupzgxlTmyvxrooECk--16">
          <mxGeometry width="50" height="50" relative="1" as="geometry">
            <mxPoint x="214" y="430" as="sourcePoint" />
            <mxPoint x="614" y="430" as="targetPoint" />
          </mxGeometry>
        </mxCell>
        <mxCell id="0eupzgxlTmyvxrooECk--17" value="&lt;font style=&quot;color: rgb(0, 0, 255); font-size: 18px;&quot;&gt;Applikation&lt;/font&gt;" style="text;html=1;align=center;verticalAlign=middle;whiteSpace=wrap;rounded=0;rotation=-90;" vertex="1" parent="1">
          <mxGeometry x="210" y="95" width="60" height="30" as="geometry" />
        </mxCell>
        <mxCell id="0eupzgxlTmyvxrooECk--18" value="&lt;font style=&quot;color: rgb(77, 153, 0); font-size: 18px;&quot;&gt;Treiber&lt;/font&gt;" style="text;html=1;align=center;verticalAlign=middle;resizable=0;points=[];autosize=1;strokeColor=none;fillColor=none;rotation=-90;" vertex="1" parent="1">
          <mxGeometry x="200" y="250" width="80" height="40" as="geometry" />
        </mxCell>
        <mxCell id="0eupzgxlTmyvxrooECk--19" value="&lt;font style=&quot;color: rgb(153, 76, 0); font-size: 18px;&quot;&gt;Peripherie&lt;/font&gt;" style="text;html=1;align=center;verticalAlign=middle;resizable=0;points=[];autosize=1;strokeColor=none;fillColor=none;rotation=-90;" vertex="1" parent="1">
          <mxGeometry x="185" y="360" width="110" height="40" as="geometry" />
        </mxCell>
        <mxCell id="0eupzgxlTmyvxrooECk--20" value="UART" style="rounded=0;whiteSpace=wrap;html=1;fillColor=#f5f5f5;fontColor=#333333;strokeColor=#666666;" vertex="1" parent="1">
          <mxGeometry x="600" y="350" width="60" height="60" as="geometry" />
        </mxCell>
        <mxCell id="0eupzgxlTmyvxrooECk--21" value="GPIO" style="rounded=0;whiteSpace=wrap;html=1;fillColor=#f5f5f5;fontColor=#333333;strokeColor=#666666;" vertex="1" parent="1">
          <mxGeometry x="520" y="350" width="60" height="60" as="geometry" />
        </mxCell>
        <mxCell id="0eupzgxlTmyvxrooECk--22" value="" style="endArrow=classic;html=1;rounded=0;exitX=0.128;exitY=1.011;exitDx=0;exitDy=0;exitPerimeter=0;entryX=0.5;entryY=0;entryDx=0;entryDy=0;fillColor=#f5f5f5;strokeColor=#1A1A1A;" edge="1" parent="1" source="0eupzgxlTmyvxrooECk--2" target="0eupzgxlTmyvxrooECk--4">
          <mxGeometry width="50" height="50" relative="1" as="geometry">
            <mxPoint x="350" y="260" as="sourcePoint" />
            <mxPoint x="400" y="210" as="targetPoint" />
            <Array as="points">
              <mxPoint x="455" y="230" />
              <mxPoint x="420" y="230" />
              <mxPoint x="370" y="230" />
            </Array>
          </mxGeometry>
        </mxCell>
        <mxCell id="0eupzgxlTmyvxrooECk--24" value="" style="endArrow=classic;html=1;rounded=0;exitX=0.336;exitY=1.011;exitDx=0;exitDy=0;exitPerimeter=0;entryX=0.5;entryY=0;entryDx=0;entryDy=0;fillColor=#f5f5f5;strokeColor=#1A1A1A;" edge="1" parent="1" source="0eupzgxlTmyvxrooECk--2" target="0eupzgxlTmyvxrooECk--6">
          <mxGeometry width="50" height="50" relative="1" as="geometry">
            <mxPoint x="350" y="260" as="sourcePoint" />
            <mxPoint x="400" y="210" as="targetPoint" />
            <Array as="points">
              <mxPoint x="480" y="280" />
              <mxPoint x="450" y="280" />
            </Array>
          </mxGeometry>
        </mxCell>
        <mxCell id="0eupzgxlTmyvxrooECk--25" value="" style="endArrow=classic;html=1;rounded=0;exitX=0.585;exitY=1.01;exitDx=0;exitDy=0;exitPerimeter=0;entryX=0.5;entryY=0;entryDx=0;entryDy=0;fillColor=#f5f5f5;strokeColor=#1A1A1A;" edge="1" parent="1">
          <mxGeometry width="50" height="50" relative="1" as="geometry">
            <mxPoint x="520.2" y="190.60000000000002" as="sourcePoint" />
            <mxPoint x="550" y="350" as="targetPoint" />
            <Array as="points">
              <mxPoint x="520" y="280" />
              <mxPoint x="550" y="280" />
            </Array>
          </mxGeometry>
        </mxCell>
        <mxCell id="0eupzgxlTmyvxrooECk--26" value="" style="endArrow=classic;html=1;rounded=0;exitX=0.885;exitY=1.01;exitDx=0;exitDy=0;exitPerimeter=0;entryX=0.5;entryY=0;entryDx=0;entryDy=0;fillColor=#f5f5f5;strokeColor=#1A1A1A;" edge="1" parent="1" source="0eupzgxlTmyvxrooECk--2" target="0eupzgxlTmyvxrooECk--20">
          <mxGeometry width="50" height="50" relative="1" as="geometry">
            <mxPoint x="540" y="191" as="sourcePoint" />
            <mxPoint x="625" y="250" as="targetPoint" />
            <Array as="points">
              <mxPoint x="546" y="230" />
              <mxPoint x="575" y="230" />
              <mxPoint x="630" y="230" />
            </Array>
          </mxGeometry>
        </mxCell>
      </root>
    </mxGraphModel>
  </diagram>
</mxfile>
